#!OML:ASF C:\ViconDB\ViconDB\414\Spring2016\041811\Spring2016.ASF
:FULLY-SPECIFIED
:DEGREES
453
root 6.17699 18.2378 -57.4735 -182.14 4.01282 -183.665
lowerback -6.30291 3.56021 -5.56738
upperback -1.29266 5.2323 -0.914692
thorax 1.77998 2.63076 2.55115
lowerneck -7.69336 9.02218 -1.68563
upperneck 43.1864 -1.63144 19.2992
head 17.3866 -1.31111 8.40823
rclavicle -4.03533e-014 -2.38542e-014
rhumerus -96.2657 34.2143 -131.863
rradius 82.9293
rwrist 20.0791
rhand -52.3603 -17.846
rfingers 7.12502
rthumb -24.8528 -46.2507
lclavicle -4.03533e-014 -2.38542e-014
lhumerus -82.9885 -44.6137 114.935
lradius 84.8329
lwrist -26.2125
lhand -32.4206 -6.69835
lfingers 7.12502
lthumb -5.65485 23.2062
rfemur 151.993 381.721 -533.92
rtibia 56.9712
rfoot -758.571 -76.8083
rtoes -26.6106
lfemur -12.139 -2.98197 -29.3968
ltibia 31.5997
lfoot -14.466 -17.0287
ltoes -24.9235
454
root 5.90008 18.2745 -57.5122 -180.149 4.2782 -183.802
lowerback -6.30291 3.56021 -5.56738
upperback -1.29266 5.2323 -0.914692
thorax 1.77998 2.63076 2.55115
lowerneck -7.69336 9.02218 -1.68563
upperneck 43.1864 -1.63144 19.2992
head 17.3866 -1.31111 8.40823
rclavicle -4.03533e-014 -2.38542e-014
rhumerus -96.2657 34.2143 -131.863
rradius 82.9293
rwrist 20.0791
rhand -52.3603 -17.846
rfingers 7.12502
rthumb -24.8528 -46.2507
lclavicle -4.03533e-014 -2.38542e-014
lhumerus -82.9885 -44.6137 114.935
lradius 84.8329
lwrist -26.2125
lhand -32.4206 -6.69835
lfingers 7.12502
lthumb -5.65485 23.2062
rfemur 158.312 381.481 -532.269
rtibia 54.3581
rfoot -758.571 -76.8083
rtoes -26.6106
lfemur -13.6759 -2.54882 -29.6038
ltibia 31.4293
lfoot -14.3703 -17.5947
ltoes -21.1027
455
root 5.85619 18.2664 -57.6956 -179.79 4.58554 -183.994
lowerback -6.30291 3.56021 -5.56738
upperback -1.29266 5.2323 -0.914692
thorax 1.77998 2.63076 2.55115
lowerneck -7.69336 9.02218 -1.68563
upperneck 43.1864 -1.63144 19.2992
head 17.3866 -1.31111 8.40823
rclavicle -4.03533e-014 -2.38542e-014
rhumerus -96.2657 34.2143 -131.863
rradius 82.9293
rwrist 20.0791
rhand -52.3603 -17.846
rfingers 7.12502
rthumb -24.8528 -46.2507
lclavicle -4.03533e-014 -2.38542e-014
lhumerus -82.9885 -44.6137 114.935
lradius 84.8329
lwrist -26.2125
lhand -32.4206 -6.69835
lfingers 7.12502
lthumb -5.65485 23.2062
rfemur 162.761 381.295 -531.334
rtibia 51.6233
rfoot -758.571 -76.8083
rtoes -26.6106
lfemur -13.3305 -2.10992 -30.0103
ltibia 31.1615
lfoot -14.558 -17.7954
ltoes -19.7157
456
root 5.80514 18.2528 -57.8788 -179.46 4.65175 -184.084
lowerback -6.30291 3.56021 -5.56738
upperback -1.29266 5.2323 -0.914692
thorax 1.77998 2.63076 2.55115
lowerneck -7.69336 9.02218 -1.68563
upperneck 43.1864 -1.63144 19.2992
head 17.3866 -1.31111 8.40823
rclavicle -4.03533e-014 -2.38542e-014
rhumerus -96.2657 34.2143 -131.863
rradius 82.9293
rwrist 20.0791
rhand -52.3603 -17.846
rfingers 7.12502
rthumb -24.8528 -46.2507
lclavicle -4.03533e-014 -2.38542e-014
lhumerus -82.9885 -44.6137 114.935
lradius 84.8329
lwrist -26.2125
lhand -32.4206 -6.69835
lfingers 7.12502
lthumb -5.65485 23.2062
rfemur 167.05 381.339 -530.241
rtibia 48.7864
rfoot -758.571 -76.8083
rtoes -26.6106
lfemur -12.9384 -1.57962 -30.2345
ltibia 30.9119
lfoot -14.3414 -18.2977
ltoes -16.1474
457
root 5.76401 18.2202 -58.0678 -179.203 4.91305 -184.261
lowerback -6.30291 3.56021 -5.56738
upperback -1.29266 5.2323 -0.914692
thorax 1.77998 2.63076 2.55115
lowerneck -7.69336 9.02218 -1.68563
upperneck 43.1864 -1.63144 19.2992
head 17.3866 -1.31111 8.40823
rclavicle -4.03533e-014 -2.38542e-014
rhumerus -96.2657 34.2143 -131.863
rradius 82.9293
rwrist 20.0791
rhand -52.3603 -17.846
rfingers 7.12502
rthumb -24.8528 -46.2507
lclavicle -4.03533e-014 -2.38542e-014
lhumerus -82.9885 -44.6137 114.935
lradius 84.8329
lwrist -26.2125
lhand -32.4206 -6.69835
lfingers 7.12502
lthumb -5.65485 23.2062
rfemur 171.353 381.585 -529.068
rtibia 45.8787
rfoot -758.571 -76.8083
rtoes -26.6106
lfemur -12.286 -0.21973 -30.6893
ltibia 30.566
lfoot -14.9194 -18.9548
ltoes -15.2348
458
root 5.71408 18.2045 -58.2518 -178.958 5.34029 -184.557
lowerback -6.30291 3.56021 -5.56738
upperback -1.29266 5.2323 -0.914692
thorax 1.77998 2.63076 2.55115
lowerneck -7.69336 9.02218 -1.68563
upperneck 43.1864 -1.63144 19.2992
head 17.3866 -1.31111 8.40823
rclavicle -4.03533e-014 -2.38542e-014
rhumerus -96.2657 34.2143 -131.863
rradius 82.9293
rwrist 20.0791
rhand -52.3603 -17.846
rfingers 7.12502
rthumb -24.8528 -46.2507
lclavicle -4.03533e-014 -2.38542e-014
lhumerus -82.9885 -44.6137 114.935
lradius 84.8329
lwrist -26.2125
lhand -32.4206 -6.69835
lfingers 7.12502
lthumb -5.65485 23.2062
rfemur 175.76 381.915 -527.852
rtibia 42.8458
rfoot -758.571 -76.8083
rtoes -26.6106
lfemur -11.8787 0.134466 -31.1807
ltibia 30.2695
lfoot -14.6998 -19.189
ltoes -21.5884
459
root 5.71408 18.2045 -58.2518 -178.958 5.34029 -184.557
lowerback -6.30291 3.56021 -5.56738
upperback -1.29266 5.2323 -0.914692
thorax 1.77998 2.63076 2.55115
lowerneck -7.69336 9.02218 -1.68563
upperneck 43.1864 -1.63144 19.2992
head 17.3866 -1.31111 8.40823
rclavicle -4.03533e-014 -2.38542e-014
rhumerus -96.2657 34.2143 -131.863
rradius 82.9293
rwrist 20.0791
rhand -52.3603 -17.846
rfingers 7.12502
rthumb -24.8528 -46.2507
lclavicle -4.03533e-014 -2.38542e-014
lhumerus -82.9885 -44.6137 114.935
lradius 84.8329
lwrist -26.2125
lhand -32.4206 -6.69835
lfingers 7.12502
lthumb -5.65485 23.2062
rfemur 175.76 381.915 -527.852
rtibia 42.8458
rfoot -758.571 -76.8083
rtoes -26.6106
lfemur -11.8787 0.134466 -31.1807
ltibia 30.2695
lfoot -14.6998 -19.189
ltoes -21.5884
460
root 5.71408 18.2045 -58.2518 -178.958 5.34029 -184.557
lowerback -6.30291 3.56021 -5.56738
upperback -1.29266 5.2323 -0.914692
thorax 1.77998 2.63076 2.55115
lowerneck -7.69336 9.02218 -1.68563
upperneck 43.1864 -1.63144 19.2992
head 17.3866 -1.31111 8.40823
rclavicle -4.03533e-014 -2.38542e-014
rhumerus -96.2657 34.2143 -131.863
rradius 82.9293
rwrist 20.0791
rhand -52.3603 -17.846
rfingers 7.12502
rthumb -24.8528 -46.2507
lclavicle -4.03533e-014 -2.38542e-014
lhumerus -82.9885 -44.6137 114.935
lradius 84.8329
lwrist -26.2125
lhand -32.4206 -6.69835
lfingers 7.12502
lthumb -5.65485 23.2062
rfemur 175.76 381.915 -527.852
rtibia 42.8458
rfoot -758.571 -76.8083
rtoes -26.6106
lfemur -11.8787 0.134466 -31.1807
ltibia 30.2695
lfoot -14.6998 -19.189
ltoes -21.5884
461
root 5.71408 18.2045 -58.2518 -178.958 5.34029 -184.557
lowerback -6.30291 3.56021 -5.56738
upperback -1.29266 5.2323 -0.914692
thorax 1.77998 2.63076 2.55115
lowerneck -7.69336 9.02218 -1.68563
upperneck 43.1864 -1.63144 19.2992
head 17.3866 -1.31111 8.40823
rclavicle -4.03533e-014 -2.38542e-014
rhumerus -96.2657 34.2143 -131.863
rradius 82.9293
rwrist 20.0791
rhand -52.3603 -17.846
rfingers 7.12502
rthumb -24.8528 -46.2507
lclavicle -4.03533e-014 -2.38542e-014
lhumerus -82.9885 -44.6137 114.935
lradius 84.8329
lwrist -26.2125
lhand -32.4206 -6.69835
lfingers 7.12502
lthumb -5.65485 23.2062
rfemur 175.76 381.915 -527.852
rtibia 42.8458
rfoot -758.571 -76.8083
rtoes -26.6106
lfemur -11.8787 0.134466 -31.1807
ltibia 30.2695
lfoot -14.6998 -19.189
ltoes -21.5884
462
root 5.71408 18.2045 -58.2518 -178.958 5.34029 -184.557
lowerback -6.30291 3.56021 -5.56738
upperback -1.29266 5.2323 -0.914692
thorax 1.77998 2.63076 2.55115
lowerneck -7.69336 9.02218 -1.68563
upperneck 43.1864 -1.63144 19.2992
head 17.3866 -1.31111 8.40823
rclavicle -4.03533e-014 -2.38542e-014
rhumerus -96.2657 34.2143 -131.863
rradius 82.9293
rwrist 20.0791
rhand -52.3603 -17.846
rfingers 7.12502
rthumb -24.8528 -46.2507
lclavicle -4.03533e-014 -2.38542e-014
lhumerus -82.9885 -44.6137 114.935
lradius 84.8329
lwrist -26.2125
lhand -32.4206 -6.69835
lfingers 7.12502
lthumb -5.65485 23.2062
rfemur 175.76 381.915 -527.852
rtibia 42.8458
rfoot -758.571 -76.8083
rtoes -26.6106
lfemur -11.8787 0.134466 -31.1807
ltibia 30.2695
lfoot -14.6998 -19.189
ltoes -21.5884
463
root 5.71408 18.2045 -58.2518 -178.958 5.34029 -184.557
lowerback -6.30291 3.56021 -5.56738
upperback -1.29266 5.2323 -0.914692
thorax 1.77998 2.63076 2.55115
lowerneck -7.69336 9.02218 -1.68563
upperneck 43.1864 -1.63144 19.2992
head 17.3866 -1.31111 8.40823
rclavicle -4.03533e-014 -2.38542e-014
rhumerus -96.2657 34.2143 -131.863
rradius 82.9293
rwrist 20.0791
rhand -52.3603 -17.846
rfingers 7.12502
rthumb -24.8528 -46.2507
lclavicle -4.03533e-014 -2.38542e-014
lhumerus -82.9885 -44.6137 114.935
lradius 84.8329
lwrist -26.2125
lhand -32.4206 -6.69835
lfingers 7.12502
lthumb -5.65485 23.2062
rfemur 175.76 381.915 -527.852
rtibia 42.8458
rfoot -758.571 -76.8083
rtoes -26.6106
lfemur -11.8787 0.134466 -31.1807
ltibia 30.2695
lfoot -14.6998 -19.189
ltoes -21.5884
464
root 5.71408 18.2045 -58.2518 -178.958 5.34029 -184.557
lowerback -6.30291 3.56021 -5.56738
upperback -1.29266 5.2323 -0.914692
thorax 1.77998 2.63076 2.55115
lowerneck -7.69336 9.02218 -1.68563
upperneck 43.1864 -1.63144 19.2992
head 17.3866 -1.31111 8.40823
rclavicle -4.03533e-014 -2.38542e-014
rhumerus -96.2657 34.2143 -131.863
rradius 82.9293
rwrist 20.0791
rhand -52.3603 -17.846
rfingers 7.12502
rthumb -24.8528 -46.2507
lclavicle -4.03533e-014 -2.38542e-014
lhumerus -82.9885 -44.6137 114.935
lradius 84.8329
lwrist -26.2125
lhand -32.4206 -6.69835
lfingers 7.12502
lthumb -5.65485 23.2062
rfemur 175.76 381.915 -527.852
rtibia 42.8458
rfoot -758.571 -76.8083
rtoes -26.6106
lfemur -11.8787 0.134466 -31.1807
ltibia 30.2695
lfoot -14.6998 -19.189
ltoes -21.5884
465
root 5.71408 18.2045 -58.2518 -178.958 5.34029 -184.557
lowerback -6.30291 3.56021 -5.56738
upperback -1.29266 5.2323 -0.914692
thorax 1.77998 2.63076 2.55115
lowerneck -7.69336 9.02218 -1.68563
upperneck 43.1864 -1.63144 19.2992
head 17.3866 -1.31111 8.40823
rclavicle -4.03533e-014 -2.38542e-014
rhumerus -96.2657 34.2143 -131.863
rradius 82.9293
rwrist 20.0791
rhand -52.3603 -17.846
rfingers 7.12502
rthumb -24.8528 -46.2507
lclavicle -4.03533e-014 -2.38542e-014
lhumerus -82.9885 -44.6137 114.935
lradius 84.8329
lwrist -26.2125
lhand -32.4206 -6.69835
lfingers 7.12502
lthumb -5.65485 23.2062
rfemur 175.76 381.915 -527.852
rtibia 42.8458
rfoot -758.571 -76.8083
rtoes -26.6106
lfemur -11.8787 0.134466 -31.1807
ltibia 30.2695
lfoot -14.6998 -19.189
ltoes -21.5884
